#N canvas 370 59 448 494 10;
#X floatatom 22 219 0 0 0 0 - - -;
#X obj 22 192 receive crackers;
#X floatatom 164 219 0 0 0 0 - - -;
#X obj 164 192 receive pickles;
#X obj 22 159 send crackers;
#X obj 164 159 send pickles;
#X obj 293 159 send pickles;
#X floatatom 293 219 0 0 0 0 - - -;
#X obj 293 192 receive pickles;
#X msg 142 308 \; pickles 99 \; crackers 56;
#X floatatom 22 132 0 0 0 0 - - -;
#X floatatom 164 132 0 0 0 0 - - -;
#X floatatom 293 132 0 0 0 0 - - -;
#X connect 1 0 0 0;
#X connect 3 0 2 0;
#X connect 8 0 7 0;
#X connect 10 0 4 0;
#X connect 11 0 5 0;
#X connect 12 0 6 0;
